<svg width="24" height="24" viewBox="0 0 24 24" fill="none" xmlns="http://www.w3.org/2000/svg">
  <mask id="mask0_890_146" style="mask-type:luminance" maskUnits="userSpaceOnUse" x="0" y="0"
    width="24" height="24">
    <path d="M0 0H24V24H0V0Z" fill="white" />
  </mask>
  <g mask="url(#mask0_890_146)">
    <path d="M15.853 16.75H15.4V17.198H15.853V16.75Z" fill="#EAEAEA" />
    <path
      d="M16.773 15.8464H16.31V16.2904H16.773V15.8464ZM21.296 16.7504V16.2904H20.848V15.3934H19.938V14.9414H19.026V15.8464H17.673V16.7514H17.223V17.1984H16.773V18.5524H16.313V18.1164H15.408V18.5524H14.502V19.9144H14.05V20.8224H13.589V21.2694H13.139V20.8224H12.229V22.1764H11.327V22.6324H10.432V22.1824H9.51798V21.7214H8.15698V22.6314H8.60998V23.0844H8.15698V23.5374H9.96998V23.9894H14.5L14.503 23.5334H15.863V23.0894L16.767 23.0854L16.765 22.6324H17.672V22.1804H18.579V21.7274H19.032V21.2754H19.938V20.8224H18.575V21.2784H18.124V21.7304H17.664V21.2784H18.124V20.8224H17.222V19.9144H16.772V20.3704H16.312V19.9144H16.772V19.4654C16.772 19.4654 19.036 19.4754 19.027 19.4654C19.017 19.4564 19.027 20.3684 19.027 20.3684H19.475V18.1084H20.845V17.6484H20.396V17.1954H20.394V16.7514H21.295L21.296 16.7504ZM15.4 19.9154H14.953V19.4664L15.4 19.4644V19.9144V19.9154ZM16.773 20.8234V21.2794H17.214V22.1834H16.774L16.773 21.2794H16.312V20.8234H16.773ZM15.4 16.3004V16.7524H14.953V16.3004H15.4Z"
      fill="white" />
    <path d="M3.16999 14.04H2.71999V14.488H1.81299V13.584H3.16699L3.17099 14.041L3.16999 14.04Z"
      fill="#959595" />
    <path
      d="M11.332 2.27222V2.73122H10.874V3.18322H9.96898V2.73122H8.61798V2.27222H9.51898V1.82422H10.879V2.27222H11.332Z"
      fill="white" />
    <path d="M13.142 0.457031H10.878V0.918031H13.142V0.457031Z" fill="#EAEAEA" />
    <path d="M8.61 22.6323H8.157V23.0853H8.61V22.6323Z" fill="#959595" />
    <path
      d="M5.88699 18.5607V19.0117H3.62399V18.5597H3.17199V17.6567H2.71899V16.7497H2.26499V15.3927H1.81199V14.9327H1.35999V14.4877H1.36699V12.6797H1.81299V14.4897H2.71999V15.3937H3.17299V17.2037H4.07799V17.6577H4.52999V18.1087H4.98299V18.5617H5.88799L5.88699 18.5607ZM9.51799 19.9227H9.06399V20.3707H9.51799V19.9227Z"
      fill="#888888" />
    <path d="M8.16303 20.8223H7.25403V21.2763H8.16403L8.16303 20.8223Z" fill="#ADADAD" />
    <path d="M8.15101 20.3652H7.70801V20.8232H8.15101V20.3652Z" fill="#B4B4B4" />
    <path d="M8.157 22.6309H7.25V23.0829H8.157V22.6309Z" fill="white" />
    <path
      d="M7.252 22.1791L7.25 22.6321L6.345 22.6291V22.1771L7.252 22.1791ZM6.344 21.7261H5.438V22.1791H6.344V21.7261ZM4.532 20.3691H3.625V20.8221H4.532V20.3691ZM5.438 21.2741H4.985V21.7271H5.438V21.2741Z"
      fill="white" />
    <path
      d="M4.98499 20.8221H4.53199V21.2761H4.98499V20.8221ZM3.62499 19.9171H3.17199V20.3711H3.62499V19.9171ZM2.71899 18.5601H2.26499V19.0131H2.71899V18.5601ZM1.81199 17.2031H1.35999V17.6561H1.81299L1.81199 17.2031ZM3.17199 19.0121H2.71899V19.9171H3.17199V19.0121Z"
      fill="white" />
    <path
      d="M2.265 17.6547H1.812V18.5597H2.265V17.6547ZM1.36 15.8457H0.905V17.2027H1.358V15.8457H1.36ZM0.906 14.4887H0.454V15.8457H0.906V14.4887ZM0.453 9.51172H0V14.4877H0.453V9.51172Z"
      fill="white" />
    <path
      d="M9.518 20.3697V20.8217H9.062V21.7207H8.157V22.6307H7.25L7.252 22.1807L6.345 22.1777V21.7277H5.438V21.2747H4.985V20.8217H4.532V20.3697H3.625V19.9167H3.172V19.0117H2.719V18.5597H2.265V17.6547H1.812V17.2027H1.36V15.8457H0.906003V14.4887H0.454003V14.4877L0.453003 9.51172H1.368V14.4877H1.359V14.9327H1.812V15.3927H2.265V16.7497H2.719V17.6567H3.172V18.5597H3.624V19.0117H5.887V19.4647H7.708V20.8217H7.254V21.2747H8.164V20.8217H8.608V20.3697H9.518Z"
      fill="#959595" />
    <path d="M11.327 20.3691V21.2741H10.422V21.7201H9.06201V20.8211H9.51801V20.3691H11.327Z"
      fill="#888888" />
    <path
      d="M12.23 20.8223V22.1763H11.327V22.6323H10.432V22.1823H9.51801V21.7213H10.422V21.2753H11.327V20.8223H12.23Z"
      fill="#959595" />
    <path
      d="M11.327 20.3693V18.1153H9.51703V17.6543H9.06403V19.0113H9.96903V19.4673H9.06403V19.9223H9.51803V20.3693H11.327Z"
      fill="#7F7F7F" />
    <path d="M9.51803 19.0117H9.06403V19.4687H9.51803V19.0117Z" fill="#C4C4C4" />
    <path d="M9.96901 19.0117H9.51801V19.4687H9.96901V19.0117Z" fill="#ADADAD" />
    <path d="M13.139 20.3688V20.8208H11.779V19.4668H12.229V19.9148H12.684V20.3688H13.139Z"
      fill="#7F7F7F" />
    <path d="M11.78 19.4668H11.327V20.8208H11.78V19.4668Z" fill="#868686" />
    <path d="M13.589 20.8223H13.139V21.2703H13.589V20.8223Z" fill="#959595" />
    <path
      d="M14.05 20.3703V20.8223H13.139V20.3703H12.684V19.9163H12.229V19.4683H11.327V18.1163H9.51699V17.6553H9.06399V17.2023H8.60699V16.7523H9.06399V14.9423H9.51799V14.4883H9.96899V17.6553H10.423V15.3953H10.877V15.8483H11.326V16.2933H11.78V19.0133H13.142V19.9133H13.595V20.3703H14.05Z"
      fill="#919191" />
    <path
      d="M8.15098 19.4655H7.70798V20.3655H8.15098V19.4655ZM7.70798 19.0125H7.24198V19.4665L7.70798 19.4655V19.0125ZM7.24198 18.5625H6.78998V19.0125H7.24198V18.5625Z"
      fill="#A6A6A6" />
    <path d="M6.78997 18.1055H6.34497V18.5635H6.78997V18.1055Z" fill="#969696" />
    <path d="M6.34502 18.1055H5.88702V18.5625H6.34502V18.1055Z" fill="#C9C9C9" />
    <path d="M5.88702 18.5605V19.4645H7.24202V19.0115H6.79002V18.5615L5.88702 18.5605Z"
      fill="#7F7F7F" />
    <path
      d="M9.06402 20.3694V18.1074H8.60702V19.0124H8.16302V18.5594H7.71002V19.4644H8.15202V20.8214H8.60902V20.3694H9.06402Z"
      fill="white" />
    <path d="M8.60703 18.5605H8.16302V19.0135H8.60703V18.5605Z" fill="#C4C4C4" />
    <path d="M8.60703 18.1074H8.16302V18.5614H8.60703V18.1074Z" fill="#B0B0B0" />
    <path
      d="M9.06398 17.2012H8.60698V18.1072H9.06398V17.2012ZM7.70898 18.5592V18.1072H8.16298V18.5612L7.70898 18.5602V18.5592Z"
      fill="#C4C4C4" />
    <path d="M7.708 18.1074H7.242V19.0114H7.708V18.1074Z" fill="#EAEAEA" />
    <path d="M7.24198 18.1074H6.78998V18.5624H7.24198V18.1074Z" fill="#DFDFDF" />
    <path
      d="M6.34497 18.1059V17.6549C6.34497 17.6549 6.77097 17.6359 6.78997 17.6549C6.80997 17.6739 6.78997 18.1079 6.78997 18.1079L6.34497 18.1059Z"
      fill="#909090" />
    <path d="M7.24198 17.6543H6.78998V18.1073H7.24198V17.6543Z" fill="#ADADAD" />
    <path
      d="M7.708 17.6543H7.242V18.1073H7.708V17.6543ZM8.163 17.6543H7.71V18.1073H8.164L8.163 17.6543Z"
      fill="#B0B0B0" />
    <path
      d="M9.51797 14.4877V14.9407H9.06397V16.7507H8.60697V18.1077H8.16297V17.6547H6.34497V18.1047H5.88697V18.5607H4.98197V18.1077H4.52997V17.6567H4.98597V17.2017H4.52997V16.2957H3.62397V15.3947H3.17397L2.71997 15.3927V14.0407H3.17097L3.16697 13.5837V13.5787H3.62397V12.2197H4.08397L4.07597 11.7667H4.53497L4.52997 11.3257H5.44397V10.8677H4.98597V9.51172H5.44397V10.4147H5.89797V9.96972L6.79797 9.96472V10.4187L7.25797 10.4147V10.8687H6.33997V11.7717H5.89797L5.88797 14.0367H8.15797V13.5837H8.60797V14.0367L9.06297 14.0407V14.4877H9.51897H9.51797Z"
      fill="#7F7F7F" />
    <path d="M4.98503 13.1328H4.53003V13.5828H4.98503V13.1328Z" fill="#969696" />
    <path d="M6.78997 14.9453H5.43597V15.3953H6.78997V14.9453Z" fill="#909090" />
    <path d="M7.24998 14.4883H6.78998V14.9473H7.24998V14.4883Z" fill="#969696" />
    <path d="M7.70902 14.4883H7.24902V14.9473H7.70902V14.4883Z" fill="#C9C9C9" />
    <path d="M8.15801 14.4883H7.70801V14.9473H8.15801V14.4883Z" fill="#969696" />
    <path
      d="M8.607 14.4883H8.157V14.9473H8.607V14.4883ZM3.172 15.3933V15.8473H3.622V15.3953L3.172 15.3933Z"
      fill="#C9C9C9" />
    <path d="M4.98503 15.8457H4.53003V16.2957H4.98603L4.98503 15.8457Z" fill="#969696" />
    <path d="M4.98503 15.3945H4.53003V15.8465H4.98603L4.98503 15.3945Z" fill="#919191" />
    <path d="M3.172 17.2009H4.077V17.6549H4.985V17.2009H4.53V16.2949H3.172V17.2009Z" fill="#B6B6B6" />
    <path d="M13.142 19.0147V18.5527H12.675V19.0137L13.142 19.0147Z" fill="#DFDFDF" />
    <path d="M12.675 18.5512H12.233V18.1152H11.779V19.0122H12.675V18.5512Z" fill="#D4D4D4" />
    <path
      d="M13.142 18.1152H12.675V18.5512H13.142V18.1152ZM14.502 18.5512V19.4622H14.05V19.9122H13.142V18.5512H13.589V19.0112H14.05V18.5512H14.502Z"
      fill="#D4D4D4" />
    <path
      d="M14.05 19.9139H13.595V20.3709H14.05V19.9139ZM14.502 19.4629H14.05V19.9149H14.502V19.4629Z"
      fill="#DFDFDF" />
    <path
      d="M12.675 18.1153H12.233V18.5513H12.675V18.1153ZM14.502 17.6543H11.78V18.1153H14.503V17.6543H14.502Z"
      fill="#EAEAEA" />
    <path
      d="M16.773 17.197V18.115H15.408V18.551H13.142V18.115H14.502V17.654H14.952V16.75H15.4V17.197H16.773Z"
      fill="#DFDFDF" />
    <path d="M14.05 18.5518H13.588V19.0128H14.05V18.5518Z" fill="#DFDFDF" />
    <path d="M12.227 16.293H11.78V17.655H12.227V16.293Z" fill="#D4D4D4" />
    <path d="M14.953 17.1973H12.227V17.6553H14.953V17.1973Z" fill="white" />
    <path d="M11.78 15.8477H11.326V16.2937H11.78V15.8477Z" fill="#7F7F7F" />
    <path
      d="M16.31 15.8456V16.2886H16.773V16.7506H15.853V16.3006H14.503V15.8516H15.853V15.3926H16.773V15.8456H16.31Z"
      fill="#DFDFDF" />
    <path d="M14.953 16.2996V17.1976H14.503V16.7506H14.05V15.8516H14.502V16.2996H14.952H14.953Z"
      fill="#E6E6E6" />
    <path
      d="M15.853 16.2988H15.4V16.7508H15.853V16.2988ZM16.773 16.7488H15.853V17.1968H16.773V16.7488Z"
      fill="white" />
    <path d="M16.773 18.1152H16.313V18.5512H16.773V18.1152Z" fill="#EAEAEA" />
    <path d="M17.223 15.3926H16.773V15.8456H17.223V15.3926Z" fill="white" />
    <path d="M17.673 15.8457H16.773V16.7507H17.673V15.8457Z" fill="#DFDFDF" />
    <path d="M17.223 16.75H16.773V17.198H17.223V16.75Z" fill="#DFDFDF" />
    <path
      d="M14.05 15.8512V16.7502H14.502V17.1972H12.227V16.2922H11.78V15.8472H10.877V15.3932H10.423V14.0352H11.78V15.3922H12.236V15.8442L14.05 15.8512Z"
      fill="#EAEAEA" />
    <path d="M12.236 14.0352H11.779V15.3922H12.236V14.0352Z" fill="#D1D1D1" />
    <path d="M7.257 11.3223H6.797V11.7693H7.257V11.3223Z" fill="#D4D4D4" />
    <path d="M14.501 15.3926L14.502 15.8526H15.853V15.3926H14.501Z" fill="#EAEAEA" />
    <path d="M14.95 14.9453H14.5V15.3943H14.949L14.95 14.9453Z" fill="#EAEAEA" />
    <path d="M3.62297 15.8457H3.17297V16.2957H3.62297V15.8457Z" fill="#969696" />
    <path d="M18.126 12.6797H17.672V13.1277H18.126V12.6797Z" fill="white" />
    <path d="M18.578 12.6797H18.126V13.1277H18.578V12.6797Z" fill="#EAEAEA" />
    <path d="M18.582 13.127H18.126V13.575H18.582V13.127Z" fill="white" />
    <path
      d="M8.15699 12.2266H7.70099V12.6836H8.15699V12.2266ZM9.96999 17.6556H10.423V14.9456H9.96999V17.6556Z"
      fill="#D1D1D1" />
    <path
      d="M13.142 14.9442H12.236V15.3932H13.142V14.9442ZM13.592 14.0352H12.235V14.4882H13.592V14.0352Z"
      fill="#DFDFDF" />
    <path d="M13.592 14.4883H12.235V14.9473H13.592V14.4883Z" fill="#EAEAEA" />
    <path d="M12.236 15.3926H12.689V15.8476L12.235 15.8456V15.3926H12.236Z" fill="#D1D1D1" />
    <path d="M12.689 15.8476V15.3926H13.142V15.8486H12.689V15.8476Z" fill="#EAEAEA" />
    <path d="M13.142 15.3926V15.8486L13.592 15.8506V15.3926H13.142Z" fill="#DFDFDF" />
    <path
      d="M13.592 14.9453H13.142V15.3943H13.592V14.9453ZM13.592 15.3933H14.502V15.8533L13.592 15.8513V15.3933Z"
      fill="white" />
    <path d="M14.05 14.9453H13.592V15.3943H14.05V14.9453Z" fill="#EAEAEA" />
    <path d="M14.501 14.9453H14.051V15.3943H14.501V14.9453Z" fill="#E6E6E6" />
    <path d="M14.95 14.4883H13.592V14.9473H14.95V14.4883Z" fill="#DFDFDF" />
    <path
      d="M13.592 14.0353V14.4873H14.05V12.2223H13.592V11.7693H13.142V11.3223H12.232V11.7743H12.69V12.6823H12.233V12.2303H11.775V13.1303H12.235V14.0353H13.592Z"
      fill="#EAEAEA" />
    <path
      d="M6.339 10.8691H7.257V11.3231H6.797V12.2181H6.34V13.1331H7.698V13.5811H8.158V14.0361H5.888V11.7721H6.34L6.339 10.8691Z"
      fill="#919191" />
    <path d="M7.25701 13.1328H6.79401V13.5828H7.25701V13.1328Z" fill="#7F7F7F" />
    <path
      d="M9.05999 13.584H8.60699V14.041H9.05999V13.584ZM9.05999 14.04H9.51799V14.489H9.06199L9.05999 14.041V14.04Z"
      fill="#919191" />
    <path
      d="M7.25702 13.1336V12.6836H8.15702V13.1336H9.97202V14.0416H10.422V14.9456H9.97002V14.4886H9.51902V14.0416H9.06002V13.5846H7.69802V13.1336H7.25702Z"
      fill="#B6B6B6" />
    <path d="M10.423 14.041V13.584H12.236V14.037L10.423 14.041Z" fill="#DFDFDF" />
    <path d="M12.235 13.1289H11.775V13.5839H12.235V13.1289Z" fill="#D1D1D1" />
    <path
      d="M11.775 13.5841V13.1311H11.329V11.7701H9.968V12.2221H9.518V12.6831H9.06V11.7701H8.157V11.3231H8.607V10.8691H7.693V11.3231H7.257V11.7701H6.797V12.2181H7.257V12.6831H7.7V12.2261H8.156V13.1331H9.971V14.0411H10.421V13.5841H11.775Z"
      fill="#EAEAEA" />
    <path
      d="M7.25699 12.6831V12.2181H6.33899V13.1331H7.25699V12.6831ZM7.69299 10.8691H7.25699V11.3231H7.69299V10.8691Z"
      fill="#D4D4D4" />
    <path
      d="M13.142 11.3219H14.05V10.8679H14.496V9.96094H14.958V10.8679H16.323V11.3219H17.213V10.8699H17.668V9.96294H18.129V11.3219H18.571V11.7649H19.033V12.6779H14.05V12.2219H13.592V11.7689H13.142V11.3219Z"
      fill="#E6E6E6" />
    <path d="M14.496 12.6796V12.2266H15.862V12.6836L14.496 12.6786V12.6796Z" fill="#DFDFDF" />
    <path d="M15.862 12.6836V12.2266H16.78V12.6786L15.862 12.6836Z" fill="#EAEAEA" />
    <path d="M18.578 12.2266H18.12V12.6786H18.578V12.2266Z" fill="#DFDFDF" />
    <path d="M18.12 12.2275H17.672V11.7695H19.032V12.6795H18.578V12.2275H18.12Z" fill="#EAEAEA" />
    <path d="M15.853 14.9453H14.95V15.3943H15.853V14.9453Z" fill="#DFDFDF" />
    <path d="M14.95 12.6797H14.05V13.5747H14.95V12.6797ZM14.95 14.0367H14.05V14.4897H14.95V14.0367Z"
      fill="#E6E6E6" />
    <path d="M14.95 14.0362V14.4882H15.402V13.5742H14.05V14.0362H14.95Z" fill="white" />
    <path d="M16.773 14.9463V15.3933H15.853V14.4883H16.313V14.9463H16.773Z" fill="#EAEAEA" />
    <path d="M14.95 14.9452H15.853V14.4872H16.313V14.0352H15.402V14.4872H14.95V14.9452Z"
      fill="#E6E6E6" />
    <path d="M15.402 12.6797H14.95V13.1277H15.402V12.6797Z" fill="#DFDFDF" />
    <path d="M15.402 13.127H14.95V13.575H15.402V13.127Z" fill="#EAEAEA" />
    <path d="M15.862 12.6797H15.402V13.1277H15.862V12.6797Z" fill="#E6E6E6" />
    <path d="M15.862 13.5742H15.402V14.0372H15.862V13.5742Z" fill="#EAEAEA" />
    <path
      d="M16.313 14.0367V13.1267H16.773V12.6797H15.862V13.1267H15.402V13.5747H15.862V14.0367H16.313Z"
      fill="#DFDFDF" />
    <path d="M17.224 12.6797H16.774V13.1277H17.224V12.6797Z" fill="#E6E6E6" />
    <path d="M16.773 13.127H16.313V13.575H16.773V13.127Z" fill="#EAEAEA" />
    <path d="M17.224 13.5742H16.314V14.0372H17.224V13.5742Z" fill="#E6E6E6" />
    <path
      d="M19.938 14.4887V14.9417H19.026V15.8467H17.673V15.3937H16.773V14.9467H16.313V14.0367H16.768V14.4887H17.672V14.0367H17.224V13.5747H16.774V13.1277H17.224V12.6797H17.672V13.1267H18.126V13.5747H18.582V14.0367H19.026V14.4887H19.938Z"
      fill="#DFDFDF" />
    <path d="M17.224 14.0352H16.768V14.4882H17.224V14.0352Z" fill="#EAEAEA" />
    <path d="M17.672 14.0352H17.223V14.4882H17.673L17.672 14.0352Z" fill="white" />
    <path d="M17.672 14.4883H17.223V14.9413H17.673L17.672 14.4883Z" fill="#E6E6E6" />
    <path d="M17.673 15.3926H17.223V15.8466H17.673V15.3926Z" fill="#EAEAEA" />
    <path d="M18.58 14.9453H18.126V15.3933H18.579L18.58 14.9453Z" fill="white" />
    <path d="M19.033 12.6797H18.578V13.5747H19.033V12.6797Z" fill="#DFDFDF" />
    <path
      d="M18.578 13.5742H19.033V14.0372H18.583L18.578 13.5742ZM19.487 14.0362L19.033 14.0372V14.4892H19.487V14.0362Z"
      fill="white" />
    <path d="M19.487 13.5742H19.033V14.0372H19.487V13.5742Z" fill="#DFDFDF" />
    <path
      d="M18.13 9.96289H18.578V10.8669H19.033V11.3189H19.484V11.7689H19.938V11.3189H20.848V12.2259H19.033V11.7679H18.571V11.3219H18.129L18.13 9.96289Z"
      fill="#A6A6A6" />
    <path d="M20.848 11.7734H20.394V12.2284H20.848V11.7734Z" fill="#909090" />
    <path d="M19.033 12.2266H20.393V14.0366H19.938V14.4876H19.487V13.5736H19.033V12.2266Z"
      fill="#E6E6E6" />
    <path d="M20.393 14.0352H19.938V14.4882H20.394L20.393 14.0352Z" fill="white" />
    <path d="M20.393 14.4883H19.938V14.9473H20.394L20.393 14.4883Z" fill="#EAEAEA" />
    <path
      d="M20.848 11.3199H19.938V11.7699H19.484V11.3199H19.032V10.8669H18.578V9.96386H17.668V9.50986C17.668 9.50986 19.488 9.50186 19.488 9.50986V9.96286H19.939V9.50586H20.848V9.96286H21.297V10.4159H21.753V11.3229H21.297V11.7709H20.847V11.3189L20.848 11.3199Z"
      fill="#909090" />
    <path
      d="M20.848 9.50586H19.939V9.96386H20.848V9.50586ZM21.296 9.96286H20.848V10.4149H21.296V9.96286Z"
      fill="#868686" />
    <path
      d="M19.488 9.96364V9.04964H19.939V8.60364H20.848V9.04964H21.753V10.4166H21.296V9.96364H20.848V9.50664H19.939V9.96364H19.488ZM18.13 6.80664H17.668V8.15464H18.129L18.13 6.80664Z"
      fill="#E6E6E6" />
    <path d="M17.668 5.89258H17.221V6.80658H17.668V5.89258Z" fill="#D1D1D1" />
    <path d="M17.221 6.3457H14.954V6.8067H17.221V6.3457Z" fill="white" />
    <path
      d="M15.858 6.80622V6.34622H15.408V5.89222H14.493V5.44222H14.043V4.98922H13.594V4.52922H14.045V4.07422H15.408V4.98422H16.306V5.44122H16.762V6.80522L15.858 6.80622Z"
      fill="#868686" />
    <path
      d="M21.753 6.34836V7.25036H21.29V6.80736H19.94V6.34736H19.487V6.80736H18.13V6.34736H18.582V5.90036H19.038V5.44336H20.394V5.89336H20.848V6.34836H21.753Z"
      fill="#9E9E9E" />
    <path d="M9.968 11.7761H9.518V12.2231H9.968V11.7761ZM9.518 10.8691H9.06V11.3231H9.518V10.8691Z"
      fill="#7F7F7F" />
    <path d="M10.876 10.8691H9.51801V11.3231H10.876V10.8691Z" fill="#EAEAEA" />
    <path d="M9.06 11.3223V12.6823H9.518V11.7753H9.968V11.3223H9.06Z" fill="#8F8F8F" />
    <path d="M9.96802 11.7763V11.3223H10.423V11.7693L9.96802 11.7763Z" fill="#7F7F7F" />
    <path
      d="M7.69299 10.8687H8.60699V11.3227H8.15699V11.7697H9.05999V10.8687H10.876V10.4117H9.05999V9.51172H8.60599V10.4167H7.69299V10.8687Z"
      fill="#D4D4D4" />
    <path
      d="M10.876 10.8691V11.3231H10.423V11.7701H11.329V13.1301H11.775V12.2311H12.69V11.7751H12.233V10.8691H10.876Z"
      fill="#D4D4D4" />
    <path d="M12.69 12.2305H12.233V12.6835H12.69V12.2305Z" fill="#BEBEBE" />
    <path
      d="M10.876 10.8679V9.96289H12.236V10.4149H12.69V10.8679H13.139V11.3219H12.233V10.8679H10.876Z"
      fill="#E6E6E6" />
    <path d="M12.237 9.96289H10.876V10.4119H12.236V9.96289H12.237Z" fill="#EAEAEA" />
    <path d="M10.876 10.4117V9.96372H11.776V9.51172H9.51703V9.96372H9.96703V10.4117H10.875H10.876Z"
      fill="#B6B6B6" />
    <path d="M9.06 9.51172V10.4117H9.968V9.96372H9.518V9.51172H9.06Z" fill="#EAEAEA" />
    <path
      d="M12.237 9.51172H11.775V9.96472H12.237V9.51172ZM12.237 9.96372V10.4167H12.69V9.96172L12.237 9.96372Z"
      fill="white" />
    <path
      d="M12.237 9.96372H12.69V10.8687H13.139V11.3227H14.05V10.8687H13.598V10.4117H13.142V9.96372H12.69V9.51172H12.237V9.96372Z"
      fill="#B6B6B6" />
    <path
      d="M9.518 9.51134V9.05534H9.06V8.60534H9.514V8.15234H9.968V9.04634H13.142V9.50634H14.05V9.06334H15.853V9.96334H17.221V10.4113H14.958V9.96134H14.496V10.4173H14.05V9.96334H12.69V9.51134H9.518Z"
      fill="#8F8F8F" />
    <path d="M13.142 9.96289H14.05V10.8669H13.598V10.4109H13.142V9.96289Z" fill="#A6A6A6" />
    <path
      d="M14.496 10.4181H14.05V10.8691H14.496V10.4181ZM14.958 10.4121H17.668V10.8711H17.213V11.3231H16.323V10.8691H14.958V10.4121Z"
      fill="#B6B6B6" />
    <path d="M17.668 9.96289H17.221V10.4119H17.668V9.96289Z" fill="#A6A6A6" />
    <path d="M17.668 9.51172H17.221V9.96572H17.668V9.51172Z" fill="#8F8F8F" />
    <path
      d="M17.668 9.511V8.604H16.313V8.165H15.859V7.7H14.509V8.165H11.782V7.7H10.874V7.25H10.424V7.691H9.96503V9.047H13.142V9.507H14.05V9.064H15.853V9.964H17.221V9.511H17.668Z"
      fill="#868686" />
    <path d="M17.668 9.51052V8.60352H18.129V9.50652L17.668 9.51052Z" fill="#A6A6A6" />
    <path d="M18.13 8.6043V8.1543H18.581V8.6073H19.033V9.0573H19.488V9.5113H18.13V8.6043Z"
      fill="white" />
    <path
      d="M20.847 8.60364V8.14464H21.753V6.80664H22.197V7.70464H22.668V8.60364H23.108V9.06164H22.66L22.662 9.96364H21.752V9.04964H20.847V8.60364Z"
      fill="#CACACA" />
    <path d="M20.847 12.2266H20.393V13.1266H20.847V12.2266Z" fill="#EAEAEA" />
    <path d="M21.296 11.7734H20.847V12.2284H21.297V11.7734H21.296Z" fill="#EAEAEA" />
    <path
      d="M21.296 11.7732V11.3242H21.753V12.6842H21.296V13.1272H20.847V12.2272H21.297V11.7732H21.296Z"
      fill="#DFDFDF" />
    <path d="M21.753 10.4171V11.3231H22.663V10.8701H22.198V10.4141L21.753 10.4171Z" fill="#D4D4D4" />
    <path d="M22.663 10.87V10.418H23.565V11.324H22.663V10.871V10.87Z" fill="#CACACA" />
    <path d="M22.663 10.4141H22.198V10.8711H22.663V10.4141Z" fill="#E6E6E6" />
    <path d="M21.753 9.96289V10.4169H22.663V9.96289H21.753Z" fill="#959595" />
    <path
      d="M22.2 13.126V13.573H21.753V14.035H21.296V14.945H20.847V15.392H19.937V14.945H20.393V13.125H20.847V13.573H21.297V13.126H22.2Z"
      fill="#DFDFDF" />
    <path d="M21.296 13.127H20.847V13.575H21.297V13.127H21.296Z" fill="#EAEAEA" />
    <path d="M22.663 12.6836H22.2V13.1276H22.662L22.663 12.6836Z" fill="#DFDFDF" />
    <path d="M22.663 12.2266H22.2V12.6826H22.662L22.663 12.2266Z" fill="#959595" />
    <path
      d="M23.114 11.7734V14.9464H22.663V14.4884H21.753V14.0364H22.201V13.5744H22.663V11.7734H23.114Z"
      fill="#CACACA" />
    <path d="M22.663 13.127H22.2V13.575H22.662L22.663 13.127Z" fill="#EAEAEA" />
    <path
      d="M22.2 13.5742H21.753V14.0372H22.201L22.2 13.5742ZM21.753 14.0372L21.296 14.0362V14.4892H21.753V14.0372Z"
      fill="white" />
    <path d="M22.663 14.4883V14.9463H22.2V15.3933H21.295V14.9463H21.752V14.4883H22.663Z"
      fill="#DFDFDF" />
    <path d="M21.753 14.4883H21.296V14.9473H21.753V14.4883Z" fill="#EAEAEA" />
    <path d="M21.296 14.9453H20.847V15.3933H21.297V14.9453H21.296Z" fill="white" />
    <path d="M22.663 14.9453V16.2893H20.847V15.3923H22.201V14.9453H22.663Z" fill="#DFDFDF" />
    <path
      d="M22.663 14.9453V15.8453H21.296V15.3923H22.201V14.9453H22.663ZM22.2 16.2893V17.6543H21.755V18.5593H21.296V19.0123H20.846V19.9163H20.392V20.3693H19.934V20.8213H19.027V20.3673H19.476V18.5553H19.939V18.1073H20.846V17.6473H20.397V17.1943H20.846V16.7503H21.296V16.2893H22.2Z"
      fill="#CACACA" />
    <path
      d="M20.846 16.75H20.396V17.195H20.846V16.75ZM19.94 18.108H19.476V18.557H19.939V18.108H19.94Z"
      fill="#EAEAEA" />
    <path
      d="M22.658 17.1953H22.201V17.6563H22.658V17.1953ZM22.2 17.6553H21.755V18.5603H22.201V17.6563L22.2 17.6553Z"
      fill="#7F7F7F" />
    <path
      d="M21.755 18.5605V19.0135H21.296V18.5605H21.756H21.755ZM21.296 19.0135H20.846V19.9175H21.296V19.0135ZM20.393 20.3705H19.934V20.8235H20.393V20.3705ZM20.846 19.9175V20.3715L20.393 20.3705V19.9185L20.846 19.9175Z"
      fill="#7F7F7F" />
    <path d="M15.4 19.4629V19.9149H14.953V19.4649L15.4 19.4629Z" fill="#D1D1D1" />
    <path
      d="M19.027 20.3679V20.8219H17.223V19.9139H16.773V19.4649C16.773 19.4649 19.037 19.4749 19.028 19.4649C19.018 19.4559 19.027 20.3679 19.027 20.3679Z"
      fill="#DFDFDF" />
    <path d="M18.576 19.918H18.125V21.278H18.575L18.576 19.918Z" fill="#EAEAEA" />
    <path
      d="M16.773 19.9141H16.313V20.3711H16.773V19.9141ZM16.773 20.8221H16.313V21.2781H16.773V20.8221ZM17.214 21.2781H16.773L16.774 22.1821H17.214V21.2781Z"
      fill="#DFDFDF" />
    <path d="M18.125 21.2773H17.665V21.7303H18.125V21.2773Z" fill="#EAEAEA" />
    <path
      d="M18.581 8.15464V8.60664H19.033V9.05664H19.939V8.60364H20.848V8.14464H21.753V7.24964H20.848V7.70664H20.394V8.15464H19.027V7.69964H18.581V6.80664H18.129V8.15464H18.581Z"
      fill="#8F8F8F" />
    <path
      d="M18.581 6.80766H19.488V6.34766H19.941V6.80766H21.29V7.25066H20.848V7.70766H20.394V8.15566H19.027V7.70066H18.581V6.80766ZM18.13 8.15566H17.668V8.60566H18.129L18.13 8.15566Z"
      fill="#868686" />
    <path d="M14.954 7.7V7.25H16.321V7.7H16.775V8.155H17.668V8.604H16.313V8.165H15.859V7.7H14.954Z"
      fill="#8F8F8F" />
    <path d="M14.954 7.24988V6.79688L17.668 6.80688V8.15487H16.775V7.69987H16.321V7.24988H14.954Z"
      fill="#959595" />
    <path d="M17.668 7.25H17.221V7.7H17.668V7.25Z" fill="#868686" />
    <path d="M18.581 6.3477V6.8077H19.03V6.3457L18.581 6.3477Z" fill="#D4D4D4" />
    <path d="M21.298 5.89258H20.848V6.34758H21.298V5.89258Z" fill="#CACACA" />
    <path d="M18.581 5.44336V6.34836H18.129V6.80736H17.668V5.44336H18.581Z" fill="#EAEAEA" />
    <path d="M19.037 5.44241H18.581V5.89941H19.037V5.44241Z" fill="#D1D1D1" />
    <path
      d="M9.05999 9.05822V9.51122H8.60599V10.4172H7.69299V9.96322H8.14699V9.51122H7.24999V8.60622H6.79999V7.69922H7.70399V8.16522H8.14799V8.60622H8.61299V9.05822H9.05999Z"
      fill="#EAEAEA" />
    <path d="M9.518 9.05859H9.06V9.51359H9.518V9.05859Z" fill="#B6B6B6" />
    <path d="M8.14699 9.51172H7.69299V9.96472H8.14699V9.51172Z" fill="#919191" />
    <path
      d="M5.89199 8.60742V9.05942H5.43799L5.44299 9.51242H4.98499V9.06042H5.43799V8.60842L5.89199 8.60742Z"
      fill="#959595" />
    <path d="M7.69302 9.51172H7.25702V9.96472H7.69302V9.51172Z" fill="#7F7F7F" />
    <path
      d="M7.69299 9.96442V10.8694H7.25699V10.4194H6.79699V9.96942H5.89699V10.4154H5.44299L5.43799 9.05942H6.34599V8.60742H7.25599V9.96442H7.69299Z"
      fill="#919191" />
    <path d="M6.79803 9.51172H6.34003V9.96972H6.79803V9.51172Z" fill="#D1D1D1" />
    <path d="M5.44299 10.8682H4.98499V11.3272H5.44299V10.8672V10.8682Z" fill="#C9C9C9" />
    <path d="M14.954 6.3457H14.494V6.7977H14.954V6.3457Z" fill="#D4D4D4" />
    <path d="M14.954 6.79688H14.046V7.25087H14.955L14.954 6.79688Z" fill="#EAEAEA" />
    <path
      d="M1.80998 10.4177V11.3227H2.24998V12.2307H1.81198V12.6787H1.36798V9.51172H2.71798V10.4177H1.80998ZM3.62298 12.6787H1.81198L1.81298 13.5837H3.62298V12.6787Z"
      fill="#D4D4D4" />
    <path
      d="M3.62299 12.2277H3.17999V12.6807H3.62199L3.62299 12.2277ZM4.98499 9.9707V11.3277H4.52999V11.7677H4.07499V12.2217L3.62299 12.2277V11.3217H4.07599V10.4187H4.52799V9.9707H4.98499Z"
      fill="#919191" />
    <path d="M4.07599 10.418H3.62299V10.869H4.07599V10.418Z" fill="#7F7F7F" />
    <path
      d="M2.71902 11.327V11.77H3.18102V12.679H1.81202V12.231H2.24902V11.323H1.80902V10.418H2.71902V10.868H3.18102V11.327H2.71902Z"
      fill="#EAEAEA" />
    <path
      d="M4.98497 9.05859V9.96859H4.52797V10.4176H3.62297V10.8676H4.07597V11.3206H3.62297V12.2266H3.17997V11.7696H2.71997V11.3266H3.18197V10.8686H2.71997V10.4176H3.18197V9.51159H3.62397V9.05959H4.98597L4.98497 9.05859Z"
      fill="#D4D4D4" />
    <path d="M0.907003 8.1543H0.453003V9.5123H0.907003V8.1543Z" fill="white" />
    <path d="M1.80998 8.60742H1.36798V9.51242H1.80898L1.80998 8.60742Z" fill="#959595" />
    <path
      d="M2.71902 6.79492V8.15492H2.26402V9.51192H1.80902V7.69992H2.26202V6.79592L2.71902 6.79492ZM4.98502 9.05892H4.52702V8.16492H5.89202V8.60692H5.43802V9.05892H4.98502Z"
      fill="#D4D4D4" />
    <path d="M4.52703 8.60742H4.07703V9.05942H4.52703V8.60742Z" fill="#EAEAEA" />
    <path
      d="M10.42 4.53708V4.98708H9.97V5.44108H9.06V5.89108H8.61V6.34308H6.797V6.79908H6.345V7.24908H5.888V7.69908H4.986V8.16608H4.528V8.60708H4.078V9.05908H3.177V8.15408H3.633V7.69908H4.077V7.24808H4.537V6.79808H4.983V6.33908H6.338V5.88308H6.8V5.44308H7.703V4.98208H8.16V4.53108H8.607V4.08008H9.52V4.53608L10.42 4.53708Z"
      fill="#909090" />
    <path
      d="M3.62301 9.0603V9.5123H3.18001V10.4183H2.72001V9.5123H2.26501V8.1543H3.17701V9.0593H3.62401L3.62301 9.0603Z"
      fill="#EAEAEA" />
    <path
      d="M5.43897 5.89258V6.34058H4.98197V6.79658H4.53597V7.24658H4.07597V7.69958H3.63197V8.15458H2.71997V7.69958H3.17697V7.24958H3.62497V6.35658H4.07897V5.89358L5.43897 5.89258Z"
      fill="#9E9E9E" />
    <path
      d="M8.16003 4.08272V4.98472H7.70203V5.44472H6.80003V5.88572H6.33803V6.34172H5.44003V5.89372H4.53003V5.43672H4.98403V4.98872H5.44003V4.53672H6.34003V4.08272H6.79903V3.63672H7.70403V4.08272H8.16003Z"
      fill="#868686" />
    <path
      d="M6.79802 3.63672V4.08272H6.33902V4.53672H5.43902V4.98872H4.98302V5.43672H4.53002V5.89372H4.08002V4.98872H4.53002V4.53672H4.97702V4.08272H5.44002V3.63672H6.79802Z"
      fill="#A6A6A6" />
    <path d="M6.79799 3.18359H6.34399V3.63659H6.79799V3.18359Z" fill="#909090" />
    <path d="M8.614 4.08272H8.159V4.53472H8.614V4.08272ZM9.067 3.63672H8.614V4.08272H9.067V3.63672Z"
      fill="#9E9E9E" />
    <path d="M9.52002 3.63672V4.08472L9.06702 4.08272V3.63672H9.51902H9.52002Z" fill="#868686" />
    <path
      d="M9.96997 3.18247V4.08147H9.51997V3.63547H8.61397V4.08147H7.70297V3.63547H6.79797V3.18347H7.25197V2.73047H9.51597V3.18247H9.96997Z"
      fill="#B6B6B6" />
    <path d="M9.52002 4.08272V4.53872H10.42V3.63672H9.97002V4.08272H9.52002Z" fill="#868686" />
    <path
      d="M6.34599 8.60683V7.69983H6.79899V6.79883H6.34399V7.24883H5.88699V7.69883H4.98499V8.16583H5.89199V8.60683H6.34599Z"
      fill="#EAEAEA" />
    <path d="M6.34603 8.60742H5.89203V9.05942H6.34603V8.60742Z" fill="#7F7F7F" />
    <path d="M6.79901 7.69922H6.34601V8.60622H6.79901V7.69922Z" fill="#D1D1D1" />
    <path
      d="M6.79602 6.34358L6.80002 7.69958H7.70402V8.16558H8.14802V8.60658H8.61302V9.05858H9.06102V7.24958H9.96602V6.79858H9.52002V6.34358H9.06002V5.89258H8.61202V6.34358H6.79602Z"
      fill="#D4D4D4" />
    <path d="M7.25 6.8007H7.704V6.3457H7.25V6.8007Z" fill="white" />
    <path d="M9.05999 8.60634V8.15234H8.60699V8.60734L9.05999 8.60634Z" fill="#E6E6E6" />
    <path d="M9.514 8.15234H9.06V8.60634H9.514V8.15234Z" fill="#B6B6B6" />
    <path d="M9.514 7.25H9.06V7.7H9.514V7.25Z" fill="#E6E6E6" />
    <path d="M9.514 7.69922H9.06V8.15322H9.514V7.69922Z" fill="#B2B2B2" />
    <path
      d="M9.51398 8.15283V7.24983H9.96498V6.79883H11.327V7.24983H10.424V7.69083H9.96498V8.15283H9.51398Z"
      fill="#A6A6A6" />
    <path
      d="M9.52 5.44141H9.06V6.34341H9.52V5.44141ZM12.237 5.89241V6.34341H11.787V6.79941H9.52V6.34341L10.879 6.34441V5.89341H12.239L12.237 5.89241Z"
      fill="#EAEAEA" />
    <path
      d="M10.874 7.24983H12.237V6.79883H12.69V7.69883H13.594V8.16483H11.782V7.69983H10.874V7.24983Z"
      fill="#8F8F8F" />
    <path
      d="M11.327 7.24975V6.79875H11.787V6.34375H13.142V7.24975H12.69V6.79875H12.237V7.24975H11.327Z"
      fill="#B6B6B6" />
    <path
      d="M14.508 8.165V7.7H14.955V7.25H14.051V7.708H13.594V7.25H12.69V7.7L13.594 7.708V8.165H14.508Z"
      fill="#A6A6A6" />
    <path d="M14.046 6.79688H13.142V7.25087H14.047V6.79688H14.046Z" fill="#E6E6E6" />
    <path d="M14.05 7.25H13.594V7.708H14.05V7.25Z" fill="#EAEAEA" />
    <path d="M11.777 5.44141L11.773 5.89141H10.878V6.34341H9.51898V5.44141H11.777Z" fill="#D4D4D4" />
    <path
      d="M11.777 4.98633H10.878V5.44133H11.777V4.98633ZM11.777 5.44133H12.237V5.89333H11.773L11.777 5.44133ZM12.69 5.89233L12.237 5.89333V6.34433H12.69V5.89233Z"
      fill="#D1D1D1" />
    <path d="M13.139 5.89258H12.689V6.34458H13.139V5.89258Z" fill="#EAEAEA" />
    <path d="M13.139 5.89258V6.79658H14.047V6.34358H13.594V5.89258H13.139Z" fill="#D4D4D4" />
    <path d="M13.594 5.89258H14.494V6.79658H14.047V6.34358H13.594V5.89258Z" fill="#E6E6E6" />
    <path
      d="M13.594 4.99023H14.043V5.44223H14.493V5.89223H15.408V6.34523H14.493V5.89223H14.043V5.44223H13.593L13.594 4.99023Z"
      fill="#909090" />
    <path d="M14.044 5.44336H13.593V5.89336H14.043L14.044 5.44336Z" fill="#D4D4D4" />
    <path
      d="M9.96999 2.73148H9.51599V3.18448H9.96899V2.73148H9.96999ZM17.223 3.18348V4.08348H16.762V3.63348H15.858V3.18348H14.955V3.63348H14.503V4.07648H14.045V4.53148H13.593V5.89348H13.139V5.44048H12.689V5.89248H12.237V5.44148H11.777V4.98648H10.878V5.44148H9.96999V4.98648H10.42V4.53248H10.87V4.08648H10.42V3.63648H9.96999V3.18248H10.874V2.73048H11.332V2.27148H11.778V2.73048H12.24V3.18248H11.778V3.63248H11.328V4.53148H12.236V4.08148H12.69V3.63148H13.596V3.17748H14.046V2.72748H14.956V2.27148H15.862V2.72448H16.314V3.18248H17.224L17.223 3.18348Z"
      fill="#EAEAEA" />
    <path
      d="M13.139 5.43894H12.689V5.89194H13.139V5.43894ZM10.87 4.08594H10.42V4.53294H10.87V4.08594Z"
      fill="#D1D1D1" />
    <path
      d="M17.221 6.3453V5.8923H17.668V4.9893H17.223V4.5293H15.408V4.9853H16.306V5.4423H16.762V6.3453H17.221Z"
      fill="#909090" />
    <path d="M15.409 3.18359H14.955V3.63359H15.409V3.18359Z" fill="#C5C5C5" />
    <path d="M15.858 3.18359H15.408V3.63359H15.858V3.18359Z" fill="#CDCDCD" />
    <path d="M16.314 3.63086V4.08186L14.504 4.07586V3.63086H16.314Z" fill="#B6B6B6" />
    <path d="M15.408 4.07486V4.52886H16.762V3.63086H16.314V4.08086L15.408 4.07486Z" fill="#9E9E9E" />
    <path d="M17.223 4.08203H16.762V4.53003H17.223V4.08203Z" fill="#C5C5C5" />
    <path d="M18.581 4.9853V5.4423H17.668V4.9893H17.223V4.5293H18.125V4.9853H18.581Z" fill="#D1D1D1" />
    <path d="M12.69 3.63281V4.08281H12.236L12.234 3.63281H12.69Z" fill="#D4D4D4" />
    <path
      d="M16.317 1.37097V1.82997H14.955V2.72697H14.046V3.17697H13.596V3.63297H12.69L12.694 3.18297H13.142V2.73097H13.596V1.81797H12.688V1.37097H11.781V1.82397H8.61798V1.36997H9.52498V0.917969H14.956V1.37097H16.317ZM12.236 4.08197H11.776V4.53797H12.236V4.08197Z"
      fill="#D4D4D4" />
    <path
      d="M13.596 1.81714V2.73014H13.142V3.18214H12.694V3.63214H12.237V4.08214H11.777V4.53714H11.329V3.63214H11.779V3.18214H12.239V2.73014H11.779V2.27114H10.879V1.82314H11.781V1.36914H12.688V1.81614L13.596 1.81714Z"
      fill="#DFDFDF" />
    <path d="M12.685 2.27148H12.24V2.73148H12.685V2.27148Z" fill="#EAEAEA" />
    <path
      d="M19.5 3.63208V4.08308H17.223C17.207 4.08308 17.223 3.18308 17.223 3.18308H16.313V2.72508H15.863V2.27208H14.955V1.83008H16.317V2.27208H16.762V2.73108H18.129V3.63208H19.5Z"
      fill="#DFDFDF" />
    <path
      d="M20.393 5.44003V5.44203H18.58V4.98503H18.124V4.52903H17.222V4.08203H19.5V4.52903H19.937V5.44003H20.393Z"
      fill="#EAEAEA" />
    <path
      d="M24.019 9.95956V14.4886H23.565V15.8446H23.12V16.7506H22.658V17.1946H22.201V16.2896H22.663V14.9456H23.113V11.3236H23.565V10.4176H22.663L22.66 9.06156H23.107V8.60356H22.668V7.70456H22.198V6.80656H21.753V6.34656H21.298V5.89256H20.393V5.43956H19.937V4.52956H19.5V2.72656H19.946V3.17656H20.392V3.62956L20.844 3.63056V4.08256H21.296V4.97956H21.76V5.43956H22.208L22.21 6.33756H22.658V7.23456H23.12V8.15756H23.557V9.95956H24.019Z"
      fill="#E6E6E6" />
    <path
      d="M21.753 11.3242V12.6842H21.296V13.1272H22.201V12.2272H22.663V11.7732H23.113V11.3242H21.753Z"
      fill="#EAEAEA" />
    <path
      d="M16.317 1.83008H17.223V2.27208H17.661V2.73108H16.761V2.27208H16.317V1.83008ZM18.13 2.73108H18.573V3.18308H19.5V3.63308H18.13V2.73108Z"
      fill="#D4D4D4" />
    <path
      d="M19.5 2.72677V3.18277H18.573V2.73077H17.661V2.27177H17.223V1.82977H16.317V1.36977H14.957V0.917766H13.142V0.457766H10.878V0.917766H9.52498V1.37077H8.61798V1.82377H8.16798V2.27177H6.79798V2.73077H5.90498V3.18277H4.98998V3.63577H4.52998V4.08177H4.07798V4.53177H3.61998V5.43477H2.71998V6.34077H2.26498V7.69977H1.80998V8.60677H1.36898V9.51177H0.906982V7.24977H1.35898V6.34577H1.81098V5.43977H2.26698V4.98977H2.71698V4.07977H3.17198V3.62977H3.62298V3.17477H4.07698V2.72477H4.98698V2.27377H5.43798V1.81577H6.34498V1.36977H7.24998V0.915766H8.15698V0.463766H9.51698V0.00976562H14.5V0.462766H15.86V0.914766H17.22V1.36777H17.673V1.81977H18.579L18.577 2.27177H19.032V2.72477H19.499L19.5 2.72677Z"
      fill="#E6E6E6" />
    <path
      d="M9.52001 1.82327V2.27127H8.61801V2.73027H7.25201V3.18327H6.34401V3.63527H5.44001V4.08127H4.97701V4.53527H4.53001V4.98727H4.08001V6.35527H3.62501V7.24927H3.17701V7.69927H2.72001V6.79427H2.26501V6.33927H2.72001V5.43327H3.62001V4.53127H4.08001V4.08027H4.53001V3.63427H4.99001V3.18127H5.90601V2.72927H6.79901V2.27027H8.16901V1.82227H9.52001V1.82327Z"
      fill="#EAEAEA" />
  </g>
</svg>
  